{
  "accessors": [
    {
      "bufferView": 2,
      "componentType": 5126,
      "count": 4,
      "max": [
        167.0288848876953,
        167.0288848876953,
        0.0
      ],
      "min": [
        -167.0288848876953,
        -167.0288848876953,
        0.0
      ],
      "type": "VEC3"
    },
    {
      "bufferView": 2,
      "byteOffset": 48,
      "componentType": 5126,
      "count": 4,
      "max": [
        0.0,
        0.0,
        1.0
      ],
      "min": [
        0.0,
        0.0,
        1.0
      ],
      "type": "VEC3"
    },
    {
      "bufferView": 1,
      "componentType": 5126,
      "count": 4,
      "max": [
        1.0,
        1.0
      ],
      "min": [
        2.9802322387695313e-08,
        2.9802322387695313e-08
      ],
      "type": "VEC2"
    },
    {
      "bufferView": 0,
      "componentType": 5125,
      "count": 6,
      "type": "SCALAR"
    },
    {
      "bufferView": 2,
      "byteOffset": 96,
      "componentType": 5126,
      "count": 37605,
      "max": [
        38.63235855102539,
        42.67033004760742,
        77.8252182006836
      ],
      "min": [
        -38.63235855102539,
        -42.67033386230469,
        13.774539947509766
      ],
      "type": "VEC3"
    },
    {
      "bufferView": 2,
      "byteOffset": 451356,
      "componentType": 5126,
      "count": 37605,
      "max": [
        1.0,
        0.9999926090240479,
        0.9999997615814209
      ],
      "min": [
        -1.0,
        -0.9999995231628418,
        -0.9999954104423523
      ],
      "type": "VEC3"
    },
    {
      "bufferView": 1,
      "byteOffset": 32,
      "componentType": 5126,
      "count": 37605,
      "max": [
        0.999500036239624,
        0.9844340085983276
      ],
      "min": [
        0.0005000000237487257,
        0.0005000000237487257
      ],
      "type": "VEC2"
    },
    {
      "bufferView": 1,
      "byteOffset": 300872,
      "componentType": 5126,
      "count": 37605,
      "max": [
        6.969977855682373,
        6.271387100219727
      ],
      "min": [
        0.014000000432133675,
        0.014000000432133675
      ],
      "type": "VEC2"
    },
    {
      "bufferView": 0,
      "byteOffset": 24,
      "componentType": 5125,
      "count": 216618,
      "type": "SCALAR"
    },
    {
      "bufferView": 2,
      "byteOffset": 902616,
      "componentType": 5126,
      "count": 1009,
      "max": [
        36.42850875854492,
        42.0152587890625,
        70.11015319824219
      ],
      "min": [
        -36.410926818847656,
        -29.74213981628418,
        13.412538528442383
      ],
      "type": "VEC3"
    },
    {
      "bufferView": 2,
      "byteOffset": 914724,
      "componentType": 5126,
      "count": 1009,
      "max": [
        1.0,
        0.9996058344841003,
        0.9733838438987732
      ],
      "min": [
        -1.0,
        -0.9999919533729553,
        -0.9999994039535522
      ],
      "type": "VEC3"
    },
    {
      "bufferView": 1,
      "byteOffset": 601712,
      "componentType": 5126,
      "count": 1009,
      "max": [
        0.9982203841209412,
        0.40350255370140076
      ],
      "min": [
        0.7292349338531494,
        0.0005000000237487257
      ],
      "type": "VEC2"
    },
    {
      "bufferView": 1,
      "byteOffset": 609784,
      "componentType": 5126,
      "count": 1009,
      "max": [
        5.076211929321289,
        2.117811918258667
      ],
      "min": [
        4.039518356323242,
        0.014536360278725624
      ],
      "type": "VEC2"
    },
    {
      "bufferView": 0,
      "byteOffset": 866496,
      "componentType": 5125,
      "count": 5328,
      "type": "SCALAR"
    },
    {
      "bufferView": 2,
      "byteOffset": 926832,
      "componentType": 5126,
      "count": 224,
      "max": [
        34.14295196533203,
        17.80316925048828,
        15.005326271057129
      ],
      "min": [
        -31.960079193115234,
        -32.5092658996582,
        0.0
      ],
      "type": "VEC3"
    },
    {
      "bufferView": 2,
      "byteOffset": 929520,
      "componentType": 5126,
      "count": 224,
      "max": [
        0.9994292259216309,
        0.9811293482780457,
        0.10192330181598663
      ],
      "min": [
        -0.9994291663169861,
        -0.9855470061302185,
        -1.0
      ],
      "type": "VEC3"
    },
    {
      "bufferView": 1,
      "byteOffset": 617856,
      "componentType": 5126,
      "count": 224,
      "max": [
        0.4143320322036743,
        0.8423927426338196
      ],
      "min": [
        0.3005642294883728,
        0.6441051363945007
      ],
      "type": "VEC2"
    },
    {
      "bufferView": 1,
      "byteOffset": 619648,
      "componentType": 5126,
      "count": 224,
      "max": [
        -0.37260010838508606,
        1.0544589757919312
      ],
      "min": [
        -0.7976002097129822,
        0.6294593214988708
      ],
      "type": "VEC2"
    },
    {
      "bufferView": 0,
      "byteOffset": 887808,
      "componentType": 5125,
      "count": 624,
      "type": "SCALAR"
    }
  ],
  "asset": {
    "extras": {
      "author": "MADE.COM (https://sketchfab.com/made-it)",
      "license": "CC-BY-NC-4.0 (http://creativecommons.org/licenses/by-nc/4.0/)",
      "source": "https://sketchfab.com/3d-models/haru-single-sofa-bed-butter-yellow-1f9d820a0aea42f28af55346d188e0cd",
      "title": "Haru Single Sofa Bed, Butter Yellow"
    },
    "generator": "Sketchfab-12.68.0",
    "version": "2.0"
  },
  "bufferViews": [
    {
      "buffer": 0,
      "byteLength": 890304,
      "name": "floatBufferViews",
      "target": 34963
    },
    {
      "buffer": 0,
      "byteLength": 621440,
      "byteOffset": 890304,
      "byteStride": 8,
      "name": "floatBufferViews",
      "target": 34962
    },
    {
      "buffer": 0,
      "byteLength": 932208,
      "byteOffset": 1511744,
      "byteStride": 12,
      "name": "floatBufferViews",
      "target": 34962
    }
  ],
  "buffers": [
    {
      "byteLength": 2443952,
      "uri": "scene.bin"
    }
  ],
  "images": [
    {
      "uri": "textures/FLOOR_baseColor.png"
    },
    {
      "uri": "textures/FABRIC_baseColor.jpeg"
    },
    {
      "uri": "textures/FABRIC_metallicRoughness.png"
    },
    {
      "uri": "textures/BLACK_FABRIC_baseColor.jpeg"
    }
  ],
  "materials": [
    {
      "alphaMode": "BLEND",
      "doubleSided": true,
      "name": "FLOOR",
      "pbrMetallicRoughness": {
        "baseColorFactor": [
          0.36346291941516806,
          0.36346291941516806,
          0.36346291941516806,
          1.0
        ],
        "baseColorTexture": {
          "index": 0
        },
        "metallicFactor": 0.0,
        "roughnessFactor": 0.8929713596497552
      }
    },
    {
      "doubleSided": true,
      "name": "FABRIC",
      "occlusionTexture": {
        "index": 2,
        "strength": 0.5929769839880601
      },
      "pbrMetallicRoughness": {
        "baseColorTexture": {
          "index": 1
        },
        "metallicFactor": 0.0,
        "metallicRoughnessTexture": {
          "index": 2
        }
      }
    },
    {
      "doubleSided": true,
      "name": "BLACK_FABRIC",
      "occlusionTexture": {
        "index": 2
      },
      "pbrMetallicRoughness": {
        "baseColorTexture": {
          "index": 3
        },
        "metallicFactor": 0.0,
        "metallicRoughnessTexture": {
          "index": 2
        },
        "roughnessFactor": 0.9839954853
      }
    },
    {
      "doubleSided": true,
      "emissiveFactor": [
        0.17901507171454986,
        0.11619106392973642,
        0.035551716962753936
      ],
      "name": "WOOD",
      "pbrMetallicRoughness": {
        "baseColorTexture": {
          "index": 3
        },
        "metallicFactor": 0.0,
        "roughnessFactor": 0.6271488021754619
      }
    }
  ],
  "meshes": [
    {
      "name": "Plane001_FLOOR_0",
      "primitives": [
        {
          "attributes": {
            "NORMAL": 1,
            "POSITION": 0,
            "TEXCOORD_0": 2
          },
          "indices": 3,
          "material": 0,
          "mode": 4
        }
      ]
    },
    {
      "name": "FABRIC001_FABRIC_0",
      "primitives": [
        {
          "attributes": {
            "NORMAL": 5,
            "POSITION": 4,
            "TEXCOORD_0": 6,
            "TEXCOORD_1": 7
          },
          "indices": 8,
          "material": 1,
          "mode": 4
        }
      ]
    },
    {
      "name": "BLACK_FABRIC001_BLACK_FABRIC_0",
      "primitives": [
        {
          "attributes": {
            "NORMAL": 10,
            "POSITION": 9,
            "TEXCOORD_0": 11,
            "TEXCOORD_1": 12
          },
          "indices": 13,
          "material": 2,
          "mode": 4
        }
      ]
    },
    {
      "name": "WOOD_WOOD_0",
      "primitives": [
        {
          "attributes": {
            "NORMAL": 15,
            "POSITION": 14,
            "TEXCOORD_0": 16,
            "TEXCOORD_1": 17
          },
          "indices": 18,
          "material": 3,
          "mode": 4
        }
      ]
    }
  ],
  "nodes": [
    {
      "children": [
        1
      ],
      "matrix": [
        1.0,
        0.0,
        0.0,
        0.0,
        0.0,
        2.220446049250313e-16,
        -1.0,
        0.0,
        0.0,
        1.0,
        2.220446049250313e-16,
        0.0,
        0.0,
        0.0,
        0.0,
        1.0
      ],
      "name": "Sketchfab_model"
    },
    {
      "children": [
        2
      ],
      "matrix": [
        1.0,
        0.0,
        0.0,
        0.0,
        0.0,
        0.0,
        1.0,
        0.0,
        0.0,
        -1.0,
        0.0,
        0.0,
        0.0,
        0.0,
        0.0,
        1.0
      ],
      "name": "27fe98ce0586452d9958eac980865b9b.fbx"
    },
    {
      "children": [
        3,
        5,
        7,
        9
      ],
      "name": "RootNode"
    },
    {
      "children": [
        4
      ],
      "matrix": [
        1.0,
        0.0,
        0.0,
        0.0,
        0.0,
        2.220446049250313e-16,
        -1.0,
        0.0,
        0.0,
        1.0,
        2.220446049250313e-16,
        0.0,
        0.0,
        0.0,
        0.0,
        1.0
      ],
      "name": "Plane001"
    },
    {
      "mesh": 0,
      "name": "Plane001_FLOOR_0"
    },
    {
      "children": [
        6
      ],
      "matrix": [
        1.0,
        0.0,
        0.0,
        0.0,
        0.0,
        2.220446049250313e-16,
        -1.0,
        0.0,
        0.0,
        1.0,
        2.220446049250313e-16,
        0.0,
        0.0,
        0.0,
        0.0,
        1.0
      ],
      "name": "FABRIC001"
    },
    {
      "mesh": 1,
      "name": "FABRIC001_FABRIC_0"
    },
    {
      "children": [
        8
      ],
      "matrix": [
        1.0,
        0.0,
        0.0,
        0.0,
        0.0,
        2.220446049250313e-16,
        -1.0,
        0.0,
        0.0,
        1.0,
        2.220446049250313e-16,
        0.0,
        0.0,
        0.0,
        0.0,
        1.0
      ],
      "name": "BLACK_FABRIC001"
    },
    {
      "mesh": 2,
      "name": "BLACK_FABRIC001_BLACK_FABRIC_0"
    },
    {
      "children": [
        10
      ],
      "matrix": [
        1.0,
        0.0,
        0.0,
        0.0,
        0.0,
        2.220446049250313e-16,
        -1.0,
        0.0,
        0.0,
        1.0,
        2.220446049250313e-16,
        0.0,
        0.0,
        0.0,
        0.0,
        1.0
      ],
      "name": "WOOD"
    },
    {
      "mesh": 3,
      "name": "WOOD_WOOD_0"
    }
  ],
  "samplers": [
    {
      "magFilter": 9729,
      "minFilter": 9987,
      "wrapS": 10497,
      "wrapT": 10497
    }
  ],
  "scene": 0,
  "scenes": [
    {
      "name": "Sketchfab_Scene",
      "nodes": [
        0
      ]
    }
  ],
  "textures": [
    {
      "sampler": 0,
      "source": 0
    },
    {
      "sampler": 0,
      "source": 1
    },
    {
      "sampler": 0,
      "source": 2
    },
    {
      "sampler": 0,
      "source": 3
    }
  ]
}
