{
  "accessors": [
    {
      "bufferView": 2,
      "componentType": 5126,
      "count": 65532,
      "max": [
        -0.16610360145568848,
        0.6441143155097961,
        0.5206022262573242
      ],
      "min": [
        -0.599183201789856,
        -0.6508623957633972,
        -0.18340975046157837
      ],
      "type": "VEC3"
    },
    {
      "bufferView": 2,
      "byteOffset": 786384,
      "componentType": 5126,
      "count": 65532,
      "max": [
        0.9953189492225647,
        0.9999874830245972,
        0.9999979734420776
      ],
      "min": [
        -0.9999890327453613,
        -0.9999871253967285,
        -0.9999964237213135
      ],
      "type": "VEC3"
    },
    {
      "bufferView": 1,
      "componentType": 5126,
      "count": 65532,
      "max": [
        0.8750002384185791,
        0.99892258644104
      ],
      "min": [
        0.125,
        0.0
      ],
      "type": "VEC2"
    },
    {
      "bufferView": 0,
      "componentType": 5125,
      "count": 372588,
      "type": "SCALAR"
    },
    {
      "bufferView": 2,
      "byteOffset": 1572768,
      "componentType": 5126,
      "count": 34216,
      "max": [
        2.9224748611450195,
        1.2345751523971558,
        0.5202957391738892
      ],
      "min": [
        -0.597069501876831,
        -1.201452374458313,
        -0.8630486130714417
      ],
      "type": "VEC3"
    },
    {
      "bufferView": 2,
      "byteOffset": 1983360,
      "componentType": 5126,
      "count": 34216,
      "max": [
        0.999998927116394,
        1.0,
        1.0
      ],
      "min": [
        -0.999998927116394,
        -1.0,
        -1.0
      ],
      "type": "VEC3"
    },
    {
      "bufferView": 1,
      "byteOffset": 524256,
      "componentType": 5126,
      "count": 34216,
      "max": [
        1.0000001192092896,
        1.000000238418579
      ],
      "min": [
        0.0,
        0.0
      ],
      "type": "VEC2"
    },
    {
      "bufferView": 0,
      "byteOffset": 1490352,
      "componentType": 5125,
      "count": 193716,
      "type": "SCALAR"
    },
    {
      "bufferView": 2,
      "byteOffset": 2393952,
      "componentType": 5126,
      "count": 7128,
      "max": [
        2.569659948348999,
        0.9880831241607666,
        0.46078944206237793
      ],
      "min": [
        -0.7595505714416504,
        -0.9737529754638672,
        -1.1999337673187256
      ],
      "type": "VEC3"
    },
    {
      "bufferView": 2,
      "byteOffset": 2479488,
      "componentType": 5126,
      "count": 7128,
      "max": [
        1.0,
        1.0,
        1.0
      ],
      "min": [
        -1.0,
        -1.0,
        -1.0
      ],
      "type": "VEC3"
    },
    {
      "bufferView": 1,
      "byteOffset": 797984,
      "componentType": 5126,
      "count": 7128,
      "max": [
        0.8750000596046448,
        1.0
      ],
      "min": [
        0.125,
        0.0
      ],
      "type": "VEC2"
    },
    {
      "bufferView": 0,
      "byteOffset": 2265216,
      "componentType": 5125,
      "count": 10716,
      "type": "SCALAR"
    },
    {
      "bufferView": 2,
      "byteOffset": 2565024,
      "componentType": 5126,
      "count": 11468,
      "max": [
        2.6433651447296143,
        1.020586371421814,
        0.38218140602111816
      ],
      "min": [
        -0.7972285747528076,
        -0.979413628578186,
        -1.11136794090271
      ],
      "type": "VEC3"
    },
    {
      "bufferView": 2,
      "byteOffset": 2702640,
      "componentType": 5126,
      "count": 11468,
      "max": [
        1.0,
        1.0,
        1.0
      ],
      "min": [
        -1.0,
        -1.0,
        -1.0
      ],
      "type": "VEC3"
    },
    {
      "bufferView": 1,
      "byteOffset": 855008,
      "componentType": 5126,
      "count": 11468,
      "max": [
        0.9173690676689148,
        1.0
      ],
      "min": [
        0.125,
        0.0
      ],
      "type": "VEC2"
    },
    {
      "bufferView": 0,
      "byteOffset": 2308080,
      "componentType": 5125,
      "count": 18126,
      "type": "SCALAR"
    },
    {
      "bufferView": 2,
      "byteOffset": 2840256,
      "componentType": 5126,
      "count": 557,
      "max": [
        2.6317038536071777,
        1.0462762117385864,
        -0.188249409198761
      ],
      "min": [
        -0.6364933252334595,
        -1.005103588104248,
        -0.5054475665092468
      ],
      "type": "VEC3"
    },
    {
      "bufferView": 2,
      "byteOffset": 2846940,
      "componentType": 5126,
      "count": 557,
      "max": [
        0.9974886178970337,
        0.9974886178970337,
        0.9974886178970337
      ],
      "min": [
        -0.9974886178970337,
        -0.9974886178970337,
        -0.9974886178970337
      ],
      "type": "VEC3"
    },
    {
      "bufferView": 1,
      "byteOffset": 946752,
      "componentType": 5126,
      "count": 557,
      "max": [
        0.875,
        1.0
      ],
      "min": [
        0.125,
        0.0
      ],
      "type": "VEC2"
    },
    {
      "bufferView": 0,
      "byteOffset": 2380584,
      "componentType": 5125,
      "count": 2916,
      "type": "SCALAR"
    },
    {
      "bufferView": 2,
      "byteOffset": 2853624,
      "componentType": 5126,
      "count": 7384,
      "max": [
        2.0512619018554688,
        1.0548771619796753,
        0.35793864727020264
      ],
      "min": [
        -0.7422865629196167,
        -1.0116556882858276,
        -0.882978618144989
      ],
      "type": "VEC3"
    },
    {
      "bufferView": 2,
      "byteOffset": 2942232,
      "componentType": 5126,
      "count": 7384,
      "max": [
        0.9972327351570129,
        1.0,
        1.0
      ],
      "min": [
        -0.9972327351570129,
        -1.0,
        -1.0
      ],
      "type": "VEC3"
    },
    {
      "bufferView": 1,
      "byteOffset": 951208,
      "componentType": 5126,
      "count": 7384,
      "max": [
        1.0,
        1.0
      ],
      "min": [
        0.0,
        0.01000000536441803
      ],
      "type": "VEC2"
    },
    {
      "bufferView": 0,
      "byteOffset": 2392248,
      "componentType": 5125,
      "count": 31116,
      "type": "SCALAR"
    },
    {
      "bufferView": 2,
      "byteOffset": 3030840,
      "componentType": 5126,
      "count": 8745,
      "max": [
        2.2206807136535645,
        1.1394293308258057,
        -0.10358929634094238
      ],
      "min": [
        0.22295773029327393,
        -1.110028624534607,
        -1.0131909847259521
      ],
      "type": "VEC3"
    },
    {
      "bufferView": 2,
      "byteOffset": 3135780,
      "componentType": 5126,
      "count": 8745,
      "max": [
        0.9999525547027588,
        0.9999828338623047,
        0.9999998807907104
      ],
      "min": [
        -0.9998600482940674,
        -0.9999693632125854,
        -1.0
      ],
      "type": "VEC3"
    },
    {
      "bufferView": 1,
      "byteOffset": 1010280,
      "componentType": 5126,
      "count": 8745,
      "max": [
        1.0000001192092896,
        1.0000001192092896
      ],
      "min": [
        0.0,
        0.0
      ],
      "type": "VEC2"
    },
    {
      "bufferView": 0,
      "byteOffset": 2516712,
      "componentType": 5125,
      "count": 49632,
      "type": "SCALAR"
    }
  ],
  "asset": {
    "extras": {
      "author": "Kieronblake (https://sketchfab.com/dtm0876)",
      "license": "CC-BY-4.0 (http://creativecommons.org/licenses/by/4.0/)",
      "source": "https://sketchfab.com/3d-models/bed-single-with-drawers-065347b3aeb146489835300d265a7ce5",
      "title": "Bed single, with drawers"
    },
    "generator": "Sketchfab-12.67.0",
    "version": "2.0"
  },
  "bufferViews": [
    {
      "buffer": 0,
      "byteLength": 2715240,
      "name": "floatBufferViews",
      "target": 34963
    },
    {
      "buffer": 0,
      "byteLength": 1080240,
      "byteOffset": 2715240,
      "byteStride": 8,
      "name": "floatBufferViews",
      "target": 34962
    },
    {
      "buffer": 0,
      "byteLength": 3240720,
      "byteOffset": 3795480,
      "byteStride": 12,
      "name": "floatBufferViews",
      "target": 34962
    }
  ],
  "buffers": [
    {
      "byteLength": 7036200,
      "uri": "scene.bin"
    }
  ],
  "materials": [
    {
      "doubleSided": true,
      "name": "Material.004",
      "pbrMetallicRoughness": {
        "baseColorFactor": [
          0.0985455,
          0.1445,
          0.382185,
          1.0
        ],
        "metallicFactor": 0.0,
        "roughnessFactor": 0.9759839352165058
      }
    },
    {
      "doubleSided": true,
      "name": "Material.007",
      "pbrMetallicRoughness": {
        "baseColorFactor": [
          0.229385,
          0.29569,
          0.157747,
          1.0
        ],
        "metallicFactor": 0.0,
        "roughnessFactor": 0.957050882055446
      }
    },
    {
      "doubleSided": true,
      "name": "Material.005",
      "pbrMetallicRoughness": {
        "baseColorFactor": [
          0.229385,
          0.29569,
          0.157747,
          1.0
        ],
        "metallicFactor": 0.0,
        "roughnessFactor": 0.957050882055446
      }
    },
    {
      "doubleSided": true,
      "name": "Material.003",
      "pbrMetallicRoughness": {
        "baseColorFactor": [
          0.8,
          0.8,
          0.8,
          1.0
        ],
        "metallicFactor": 0.0,
        "roughnessFactor": 0.8735088935932648
      }
    },
    {
      "doubleSided": true,
      "name": "Material.001",
      "pbrMetallicRoughness": {
        "metallicFactor": 0.0,
        "roughnessFactor": 0.7261387212
      }
    },
    {
      "doubleSided": true,
      "name": "Material.006",
      "pbrMetallicRoughness": {
        "baseColorFactor": [
          0.151285,
          0.0961645,
          0.184398,
          1.0
        ],
        "metallicFactor": 0.0,
        "roughnessFactor": 0.9744521235155493
      }
    }
  ],
  "meshes": [
    {
      "name": "Plane_Material.004_0",
      "primitives": [
        {
          "attributes": {
            "NORMAL": 1,
            "POSITION": 0,
            "TEXCOORD_0": 2
          },
          "indices": 3,
          "material": 0,
          "mode": 4
        }
      ]
    },
    {
      "name": "Plane_Material.004_0",
      "primitives": [
        {
          "attributes": {
            "NORMAL": 5,
            "POSITION": 4,
            "TEXCOORD_0": 6
          },
          "indices": 7,
          "material": 0,
          "mode": 4
        }
      ]
    },
    {
      "name": "Plane_Material.007_0",
      "primitives": [
        {
          "attributes": {
            "NORMAL": 9,
            "POSITION": 8,
            "TEXCOORD_0": 10
          },
          "indices": 11,
          "material": 1,
          "mode": 4
        }
      ]
    },
    {
      "name": "Plane_Material.005_0",
      "primitives": [
        {
          "attributes": {
            "NORMAL": 13,
            "POSITION": 12,
            "TEXCOORD_0": 14
          },
          "indices": 15,
          "material": 2,
          "mode": 4
        }
      ]
    },
    {
      "name": "Plane_Material.003_0",
      "primitives": [
        {
          "attributes": {
            "NORMAL": 17,
            "POSITION": 16,
            "TEXCOORD_0": 18
          },
          "indices": 19,
          "material": 3,
          "mode": 4
        }
      ]
    },
    {
      "name": "Plane_Material.001_0",
      "primitives": [
        {
          "attributes": {
            "NORMAL": 21,
            "POSITION": 20,
            "TEXCOORD_0": 22
          },
          "indices": 23,
          "material": 4,
          "mode": 4
        }
      ]
    },
    {
      "name": "Plane_Material.006_0",
      "primitives": [
        {
          "attributes": {
            "NORMAL": 25,
            "POSITION": 24,
            "TEXCOORD_0": 26
          },
          "indices": 27,
          "material": 5,
          "mode": 4
        }
      ]
    }
  ],
  "nodes": [
    {
      "children": [
        1
      ],
      "matrix": [
        1.0,
        0.0,
        0.0,
        0.0,
        0.0,
        2.220446049250313e-16,
        -1.0,
        0.0,
        0.0,
        1.0,
        2.220446049250313e-16,
        0.0,
        0.0,
        0.0,
        0.0,
        1.0
      ],
      "name": "Sketchfab_model"
    },
    {
      "children": [
        2
      ],
      "matrix": [
        0.009999999776482582,
        0.0,
        0.0,
        0.0,
        0.0,
        0.0,
        0.009999999776482582,
        0.0,
        0.0,
        -0.009999999776482582,
        0.0,
        0.0,
        0.0,
        0.0,
        0.0,
        1.0
      ],
      "name": "bedroompractice.fbx"
    },
    {
      "children": [
        3
      ],
      "name": "RootNode"
    },
    {
      "children": [
        4,
        5,
        6,
        7,
        8,
        9,
        10
      ],
      "matrix": [
        100.0,
        0.0,
        0.0,
        0.0,
        -0.0,
        -4.371139006309477e-06,
        -99.9999999999999,
        0.0,
        0.0,
        99.9999999999999,
        -4.371139006309477e-06,
        0.0,
        -339.10028076171875,
        20.09674835205078,
        0.48820236325263977,
        1.0
      ],
      "name": "Plane"
    },
    {
      "mesh": 0,
      "name": "Plane_Material.004_0"
    },
    {
      "mesh": 1,
      "name": "Plane_Material.004_0"
    },
    {
      "mesh": 2,
      "name": "Plane_Material.007_0"
    },
    {
      "mesh": 3,
      "name": "Plane_Material.005_0"
    },
    {
      "mesh": 4,
      "name": "Plane_Material.003_0"
    },
    {
      "mesh": 5,
      "name": "Plane_Material.001_0"
    },
    {
      "mesh": 6,
      "name": "Plane_Material.006_0"
    }
  ],
  "scene": 0,
  "scenes": [
    {
      "name": "Sketchfab_Scene",
      "nodes": [
        0
      ]
    }
  ]
}
