{
  "accessors": [
    {
      "bufferView": 2,
      "componentType": 5126,
      "count": 264,
      "max": [
        103.16259002685547,
        392.564697265625,
        18.67232894897461
      ],
      "min": [
        -104.09806060791016,
        186.7503204345703,
        -18.67232894897461
      ],
      "type": "VEC3"
    },
    {
      "bufferView": 2,
      "byteOffset": 3168,
      "componentType": 5126,
      "count": 264,
      "max": [
        1.0,
        1.0,
        1.0
      ],
      "min": [
        -1.0,
        -1.0,
        -1.0
      ],
      "type": "VEC3"
    },
    {
      "bufferView": 1,
      "componentType": 5126,
      "count": 264,
      "max": [
        0.9777583479881287,
        0.9900000095367432
      ],
      "min": [
        0.009999999776482582,
        0.009999990463256836
      ],
      "type": "VEC2"
    },
    {
      "bufferView": 1,
      "byteOffset": 2112,
      "componentType": 5126,
      "count": 264,
      "max": [
        0.9777583479881287,
        0.9900000095367432
      ],
      "min": [
        0.009999999776482582,
        0.009999990463256836
      ],
      "type": "VEC2"
    },
    {
      "bufferView": 1,
      "byteOffset": 4224,
      "componentType": 5126,
      "count": 264,
      "max": [
        0.9777583479881287,
        0.9900000095367432
      ],
      "min": [
        0.009999999776482582,
        0.009999990463256836
      ],
      "type": "VEC2"
    },
    {
      "bufferView": 0,
      "componentType": 5125,
      "count": 420,
      "type": "SCALAR"
    }
  ],
  "asset": {
    "extras": {
      "author": "Fabian van Dorst (https://sketchfab.com/FabianvanDorst)",
      "license": "CC-BY-4.0 (http://creativecommons.org/licenses/by/4.0/)",
      "source": "https://sketchfab.com/3d-models/vent-d6b51c17b0b941d8a24bd21b5936dc72",
      "title": "Vent"
    },
    "generator": "Sketchfab-12.66.0",
    "version": "2.0"
  },
  "bufferViews": [
    {
      "buffer": 0,
      "byteLength": 1680,
      "name": "floatBufferViews",
      "target": 34963
    },
    {
      "buffer": 0,
      "byteLength": 6336,
      "byteOffset": 1680,
      "byteStride": 8,
      "name": "floatBufferViews",
      "target": 34962
    },
    {
      "buffer": 0,
      "byteLength": 6336,
      "byteOffset": 8016,
      "byteStride": 12,
      "name": "floatBufferViews",
      "target": 34962
    }
  ],
  "buffers": [
    {
      "byteLength": 14352,
      "uri": "scene.bin"
    }
  ],
  "images": [
    {
      "uri": "textures/Mat.1_baseColor.png"
    }
  ],
  "materials": [
    {
      "doubleSided": true,
      "name": "Mat.1",
      "pbrMetallicRoughness": {
        "baseColorTexture": {
          "index": 0
        },
        "metallicFactor": 0.0,
        "roughnessFactor": 0.7187631475100728
      }
    }
  ],
  "meshes": [
    {
      "name": "Cube.10_Mat.1_0",
      "primitives": [
        {
          "attributes": {
            "NORMAL": 1,
            "POSITION": 0,
            "TEXCOORD_0": 2,
            "TEXCOORD_1": 3,
            "TEXCOORD_2": 4
          },
          "indices": 5,
          "material": 0,
          "mode": 4
        }
      ]
    }
  ],
  "nodes": [
    {
      "children": [
        1
      ],
      "matrix": [
        1.0,
        0.0,
        0.0,
        0.0,
        0.0,
        2.220446049250313e-16,
        -1.0,
        0.0,
        0.0,
        1.0,
        2.220446049250313e-16,
        0.0,
        0.0,
        0.0,
        0.0,
        1.0
      ],
      "name": "Sketchfab_model"
    },
    {
      "children": [
        2
      ],
      "matrix": [
        1.0,
        0.0,
        0.0,
        0.0,
        0.0,
        0.0,
        1.0,
        0.0,
        0.0,
        -1.0,
        0.0,
        0.0,
        0.0,
        0.0,
        0.0,
        1.0
      ],
      "name": "a6938584c5ac4d0eafa0295187bcc20d.fbx"
    },
    {
      "children": [
        3
      ],
      "name": "RootNode"
    },
    {
      "children": [
        4
      ],
      "name": "Cube.10"
    },
    {
      "mesh": 0,
      "name": "Cube.10_Mat.1_0"
    }
  ],
  "samplers": [
    {
      "magFilter": 9729,
      "minFilter": 9987,
      "wrapS": 10497,
      "wrapT": 10497
    }
  ],
  "scene": 0,
  "scenes": [
    {
      "name": "Sketchfab_Scene",
      "nodes": [
        0
      ]
    }
  ],
  "textures": [
    {
      "sampler": 0,
      "source": 0
    }
  ]
}
